<svg width="65" height="64" viewBox="0 0 65 64" fill="none" xmlns="http://www.w3.org/2000/svg">
<path d="M42.918 10.6666H21.5846C15.6936 10.6666 10.918 15.4423 10.918 21.3333V42.6666C10.918 48.5577 15.6936 53.3333 21.5846 53.3333H42.918C48.809 53.3333 53.5846 48.5577 53.5846 42.6666V21.3333C53.5846 15.4423 48.809 10.6666 42.918 10.6666Z" stroke="#FF6F00" stroke-width="2" stroke-linecap="round" stroke-linejoin="round"/>
<path d="M32.25 40C36.6683 40 40.25 36.4183 40.25 32C40.25 27.5817 36.6683 24 32.25 24C27.8317 24 24.25 27.5817 24.25 32C24.25 36.4183 27.8317 40 32.25 40Z" stroke="#FF6F00" stroke-width="2" stroke-linecap="round" stroke-linejoin="round"/>
<path d="M44.25 20V20.0027" stroke="#FF6F00" stroke-width="2" stroke-linecap="round" stroke-linejoin="round"/>
</svg>
