<svg width="25" height="24" viewBox="0 0 25 24" fill="none" xmlns="http://www.w3.org/2000/svg">
<path d="M19.2901 5H6.29015C6.14613 5.05051 6.01558 5.13331 5.90851 5.24206C5.80143 5.35082 5.72067 5.48264 5.67241 5.62742C5.62415 5.77221 5.60967 5.92612 5.63007 6.07737C5.65048 6.22861 5.70524 6.37318 5.79015 6.5L10.7901 12V16L14.7901 19V12L19.7901 6.5C19.8751 6.37318 19.9298 6.22861 19.9502 6.07737C19.9706 5.92612 19.9561 5.77221 19.9079 5.62742C19.8596 5.48264 19.7789 5.35082 19.6718 5.24206C19.5647 5.13331 19.4342 5.05051 19.2901 5Z" stroke="black" stroke-opacity="0.88" stroke-width="2" stroke-linecap="round" stroke-linejoin="round"/>
</svg>
