<svg width="24" height="24" viewBox="0 0 24 24" fill="none" xmlns="http://www.w3.org/2000/svg">
<path d="M19.5001 13.5719L12.0001 20.9999L4.50006 13.5719C4.00536 13.0905 3.6157 12.5119 3.3556 11.8726C3.09551 11.2332 2.97062 10.5469 2.98879 9.85687C3.00697 9.16685 3.16782 8.48807 3.46121 7.86327C3.75461 7.23847 4.17419 6.68119 4.69354 6.22651C5.21289 5.77184 5.82076 5.42962 6.47887 5.22141C7.13697 5.01321 7.83106 4.94352 8.51743 5.01673C9.20379 5.08995 9.86756 5.30449 10.4669 5.64684C11.0663 5.98919 11.5883 6.45193 12.0001 7.00593C12.4136 6.45595 12.9362 5.99725 13.5352 5.65854C14.1341 5.31982 14.7966 5.10838 15.481 5.03745C16.1654 4.96652 16.8571 5.03763 17.5128 5.24632C18.1685 5.45502 18.7741 5.79681 19.2916 6.2503C19.8091 6.70379 20.2275 7.25922 20.5205 7.88182C20.8135 8.50443 20.9748 9.18082 20.9944 9.86864C21.0139 10.5565 20.8913 11.2409 20.6342 11.8792C20.3771 12.5174 19.991 13.0958 19.5001 13.5779" stroke="black" stroke-opacity="0.88" stroke-width="2" stroke-linecap="round" stroke-linejoin="round"/>
</svg>
