<svg width="24" height="24" viewBox="0 0 24 24" fill="none" xmlns="http://www.w3.org/2000/svg">
<path d="M19.5003 13.5717L12.0003 20.9997L4.5003 13.5717C4.00561 13.0903 3.61594 12.5117 3.35585 11.8723C3.09575 11.2329 2.97086 10.5466 2.98904 9.85662C3.00721 9.1666 3.16806 8.48782 3.46146 7.86303C3.75485 7.23823 4.17444 6.68094 4.69379 6.22627C5.21314 5.77159 5.82101 5.42938 6.47911 5.22117C7.13722 5.01296 7.83131 4.94327 8.51767 5.01649C9.20403 5.08971 9.8678 5.30425 10.4672 5.64659C11.0666 5.98894 11.5885 6.45169 12.0003 7.00569C12.4138 6.45571 12.9364 5.99701 13.5354 5.65829C14.1344 5.31958 14.7968 5.10814 15.4812 5.03721C16.1657 4.96628 16.8574 5.03739 17.5131 5.24608C18.1688 5.45477 18.7743 5.79656 19.2919 6.25005C19.8094 6.70354 20.2277 7.25897 20.5207 7.88158C20.8137 8.50419 20.975 9.18057 20.9946 9.8684C21.0142 10.5562 20.8916 11.2407 20.6344 11.8789C20.3773 12.5172 19.9912 13.0955 19.5003 13.5777" stroke="black" stroke-opacity="0.88" stroke-width="2" stroke-linecap="round" stroke-linejoin="round"/>
<path d="M12 7L10 11L14 14L12 18V21" stroke="black" stroke-opacity="0.88" stroke-width="2" stroke-linecap="round" stroke-linejoin="round"/>
</svg>
