<svg width="24" height="24" viewBox="0 0 24 24" fill="none" xmlns="http://www.w3.org/2000/svg">
<path d="M19.5001 13.572L12.0001 21L4.50006 13.572C4.00536 13.0906 3.6157 12.512 3.3556 11.8726C3.09551 11.2333 2.97062 10.5469 2.98879 9.85693C3.00697 9.16691 3.16782 8.48813 3.46121 7.86333C3.75461 7.23853 4.17419 6.68125 4.69354 6.22657C5.21289 5.7719 5.82076 5.42968 6.47887 5.22147C7.13697 5.01327 7.83106 4.94358 8.51743 5.0168C9.20379 5.09001 9.86756 5.30455 10.4669 5.6469C11.0663 5.98925 11.5883 6.45199 12.0001 7.00599C12.4136 6.45602 12.9362 5.99731 13.5352 5.6586C14.1341 5.31988 14.7966 5.10844 15.481 5.03751C16.1654 4.96658 16.8571 5.03769 17.5128 5.24639C18.1685 5.45508 18.7741 5.79687 19.2916 6.25036C19.8091 6.70385 20.2275 7.25928 20.5205 7.88189C20.8135 8.50449 20.9748 9.18088 20.9944 9.8687C21.0139 10.5565 20.8913 11.241 20.6342 11.8792C20.3771 12.5175 19.991 13.0958 19.5001 13.578" stroke="black" stroke-opacity="0.88" stroke-width="2" stroke-linecap="round" stroke-linejoin="round"/>
</svg>
